/* XPM */
static char *result[] = {
/* columns rows colors chars-per-pixel */
"30 30 29 1 ",
"  c #2E2723",
". c #2E2824",
"X c #322B26",
"o c #352E29",
"O c #382F2A",
"+ c #3C332D",
"@ c #3F3631",
"# c #40352F",
"$ c #413731",
"% c #453A34",
"& c #493D37",
"* c #4A3F38",
"= c #4D423B",
"- c #51453E",
"; c #534740",
": c #554942",
"> c #5A4D45",
", c #5C5047",
"< c #5E5149",
"1 c #62554C",
"2 c #65584F",
"3 c #675A50",
"4 c #6A5C53",
"5 c #6E6056",
"6 c #706257",
"7 c #72645A",
"8 c #77695E",
"9 c #796A5F",
"0 c #7B6D61",
/* pixels */
"<-512343>;3>;41:87>=:1>43>2:->",
"+-76>;=*%>>=*78=<3=:53246811&o",
"&%::&O&=*;33188:+++>311>:12:+%",
"3%&&%$307><3<:-$&<+%::-1:&%o-4",
"42&+@-706<+$%#$ =7<=++=>%%>:%=",
">73*2>31:&%:-3>-<54:&:===-33O#",
"&-:;4=$&%O:64121:3=X:5:,1*,*=>",
"&&&O&%X+# $=*$54%%+>%==&*OO#=1",
"@O@OX%344&:=@@;:%o%==77=*341=;",
"@:<,%473=&<>:@+@@=@@:<-&:>154%",
"40<<%;&%>*X:2>-;:5<:-:=++%@+%&",
"05*:%X+57=:10800;:<%37,&>7>*;5",
":;&;>*=:&%,*3468;o=&24>%77>584",
"+&&-%:5%:%<&&**-@=7;&@X@:%@<<%",
"1&#+=7430@$$.#&&%<3&X%:=:3:+*:",
"=+ $;>>5,OO&-O#OX@=%;3==70:>64",
"X&-$###=+%:70<11<-$%20%%>->01*",
"1861--:%@>:80338>>>>:03%%+--%3",
"2931-442=:=261%>*%;%*143=>*X-1",
"+>*OX==<-+$&&*O+XX$X$***><:%=*",
"-:<:&=%++$=+@&=%$1;;=$$O$*>64>",
"@201>7<&&35%<47>=46<424:+&=*&$",
".&=+-1>&:85:<573%==2860>;;%O%-",
"=:&2&%%X=2-:%=%&++O<<<1O@>:31@",
"=2<7=-5<==&%<5@<31>%=&=::**44;",
"&=1,:400<+X%3<=&>60=X$4084:%%$",
"%==:=&<4:%=%&===&<7=$%*>11>$;3",
"X=-=%=@&%25-=&>:*@$@23+%&&@188",
"=722==3=@<<23:=&**>=->-:$O,00;",
"=<70>&55:>;;=;@X:38=&+&>:@=21@"
};
