/* XPM */
static char *_90c0d6bc18a4e23b590752037446b8dcgZE8BLnQ2Gp15JF[] = {
/* columns rows colors chars-per-pixel */
"30 30 165 2 ",
"   c None",
".  c #010101",
"X  c #0A0504",
"o  c #020B04",
"O  c #090B08",
"+  c #130905",
"@  c #150E0A",
"#  c #1B0D07",
"$  c #031305",
"%  c #051D07",
"&  c #041E0A",
"*  c #25150B",
"=  c #2B190D",
"-  c #311B15",
";  c #072407",
":  c #04250B",
">  c #092C0A",
",  c #0C2908",
"<  c #122D0F",
"1  c #09330A",
"2  c #0C3D0C",
"3  c #153D0F",
"4  c #15251D",
"5  c #0A3511",
"6  c #083A16",
"7  c #173D10",
"8  c #2B220F",
"9  c #3C2D19",
"0  c #392613",
"q  c #39341F",
"w  c #3D3A29",
"e  c #23303D",
"r  c #4D2B16",
"t  c #4E341C",
"y  c #463E1A",
"u  c #5A331C",
"i  c #6C3F1F",
"p  c #733F1F",
"a  c #45382B",
"s  c #6C3F20",
"d  c #0C440D",
"f  c #0B4713",
"g  c #0C4C13",
"h  c #144613",
"j  c #184814",
"k  c #0E5416",
"l  c #0D551A",
"z  c #0D5B1B",
"x  c #1A5C16",
"c  c #1A5819",
"v  c #334919",
"b  c #205115",
"n  c #265A19",
"m  c #39541D",
"M  c #0D621E",
"N  c #1B6117",
"B  c #236618",
"V  c #25731C",
"C  c #28751C",
"Z  c #297A1D",
"A  c #275324",
"S  c #325926",
"D  c #0E6823",
"F  c #1D6523",
"G  c #146C23",
"H  c #0F7426",
"J  c #0F7B29",
"K  c #137426",
"L  c #117C29",
"P  c #376424",
"I  c #397C2F",
"U  c #474600",
"Y  c #565A02",
"T  c #574E1F",
"R  c #72401F",
"E  c #67551C",
"W  c #536605",
"Q  c #636901",
"!  c #646200",
"~  c #746A06",
"^  c #564122",
"/  c #5E5423",
"(  c #494237",
")  c #614E22",
"_  c #7C4821",
"`  c #6A4F3D",
"'  c #60523B",
"]  c #725131",
"[  c #4A6127",
"{  c #66642C",
"}  c #636B37",
"|  c #65772A",
" . c #096F66",
".. c #467472",
"X. c #807A0B",
"o. c #82671B",
"O. c #865829",
"+. c #865832",
"@. c #926432",
"#. c #92653C",
"$. c #847B3C",
"%. c #9D723C",
"&. c #9C7B35",
"*. c #97772B",
"=. c #81654A",
"-. c #926643",
";. c #9F7D41",
":. c #A47B41",
">. c #A67B49",
",. c #168029",
"<. c #1D8629",
"1. c #268726",
"2. c #258D29",
"3. c #378722",
"4. c #2B962A",
"5. c #379C2A",
"6. c #3A9E29",
"7. c #6EBA1F",
"8. c #4E8B27",
"9. c #508A27",
"0. c #5A9B32",
"q. c #41A529",
"w. c #42A92A",
"e. c #6CB426",
"r. c #69AA31",
"t. c #308443",
"y. c #7E8557",
"u. c #8E8C01",
"i. c #868400",
"p. c #9A8B10",
"a. c #98A203",
"s. c #9DB007",
"d. c #829334",
"f. c #AF8A3B",
"g. c #AB8538",
"h. c #BD9D3E",
"j. c #E4DE12",
"k. c #EAE90B",
"l. c #E7E409",
"z. c #DDC62B",
"x. c #A0804A",
"c. c #AF8853",
"v. c #B9935D",
"b. c #899363",
"n. c #A3886C",
"m. c #C99F4E",
"M. c #C39E77",
"N. c #C4A06E",
"B. c #9CCA45",
"V. c #A5D348",
"C. c #647A8B",
"Z. c #0691AC",
"A. c #1A95B1",
"S. c #9E9B9C",
"D. c #93B094",
"F. c #CEB58B",
"G. c #D9B78B",
"H. c #D1B798",
"J. c #D6C09D",
"K. c #E5C89F",
"L. c #DECCAF",
"P. c #E1CCA0",
"I. c #EED2A8",
"U. c #F4D7AD",
"Y. c #DAE0D6",
/* pixels */
"                                                            ",
"                      8 &.f.f.g.O.                          ",
"                  . y m.j.k.k.k.l.z.m.:.                    ",
"                . ; n r.e.7.7.7.7.r.0.3.d.                  ",
"                . n Z N N N N N N N N k m / _               ",
"              o ; x C C C C C C C Z N d z [ +.              ",
"              o 2 d N w.q.q.q.q.q.5.1.z M P {               ",
"            w ; g k V q.q.q.q.q.q.2.J J g d j               ",
"        v.G.y.d M H <.6.q.q.q.q.6.2.H D k d S F.N.n.        ",
"      -.K.U.b.1 o l L ,.5.6.6.5.<.L z o z z S P.I.v._       ",
"        +.>.} 6 o 1 z L <.L L L L z 1 o 1 f A x.#.+.        ",
"          _ ..Z.6 $ 5 L L L L L k > $ 1 2  .A.]             ",
"          # | V.T # & z K L J L f % o 2 y d.B.8             ",
"            U ~ @.p.W > G J H k : Y a.s.*.o.!               ",
"              @ T X.Y o H ,.M , Q i.u.u.E 9                 ",
"                . # + o z M f + a.W $ $ . .                 ",
"                . ` ' & > 1 , $ 2 d d g $ .                 ",
"                X S.D.F & $ : h h h b t.4 O                 ",
"                  4 w / F G G K K m =.Y.C.e X               ",
"                . n 3.9./ ) ) ) ) 0 a H.L.n.r X             ",
"                . M 4.q.8.9.9.9.9.n < w J.M.i .             ",
"                  : < h 3 3.q.q.w.1.l . ( a *               ",
"                  . + 0 t v c b b h 5 .   .                 ",
"                  * r O.:.9 . . . .                         ",
"                . r +.x.:.9 .                               ",
"                . r O.%.%.9 .                               ",
"                . - u i s = .                               ",
"                  X X + +                                   ",
"                                                            ",
"                                                            "
};
