/* XPM */
static char *_c1ef5ffa6c942339093eda46b99c4cawc63WBgXTcnfxu2u[] = {
/* columns rows colors chars-per-pixel */
"30 30 190 2 ",
"   c None",
".  c #010202",
"X  c #090505",
"o  c #010B02",
"O  c #0B0A06",
"+  c #0C0A09",
"@  c #190E0A",
"#  c #140E0C",
"$  c #021105",
"%  c #0A1306",
"&  c #081905",
"*  c #191804",
"=  c #010E16",
"-  c #1A1613",
";  c #26180C",
":  c #331D0E",
">  c #281A13",
",  c #341D14",
"<  c #351D18",
"1  c #05240A",
"2  c #052006",
"3  c #12230F",
"4  c #0A320A",
"5  c #0B390B",
"6  c #122F12",
"7  c #1E2710",
"8  c #292111",
"9  c #3A2216",
"0  c #333512",
"q  c #253619",
"w  c #352C20",
"e  c #3D3A26",
"r  c #452814",
"t  c #42241C",
"y  c #492916",
"u  c #532F17",
"i  c #532C1C",
"p  c #59321A",
"a  c #693C1E",
"s  c #4C2B20",
"d  c #523622",
"f  c #593627",
"g  c #473933",
"h  c #693C21",
"j  c #703F21",
"k  c #0D410D",
"l  c #084715",
"z  c #134A13",
"x  c #0D5416",
"c  c #0E5A19",
"v  c #0B521B",
"b  c #1B5D15",
"n  c #135C1E",
"m  c #125519",
"M  c #37451D",
"N  c #0F651E",
"B  c #1B6419",
"V  c #1B711F",
"C  c #27681B",
"Z  c #27731B",
"A  c #2B741C",
"S  c #2C791C",
"D  c #326613",
"F  c #354C3D",
"G  c #0F6B21",
"H  c #0F7727",
"J  c #107426",
"K  c #117C29",
"L  c #1B7829",
"P  c #146D24",
"I  c #217027",
"U  c #3F7723",
"Y  c #3C6F34",
"T  c #296331",
"R  c #56431E",
"E  c #484707",
"W  c #60451F",
"Q  c #74601C",
"!  c #445C2E",
"~  c #4F403A",
"^  c #5C4333",
"/  c #674621",
"(  c #675829",
")  c #795735",
"_  c #784421",
"`  c #466130",
"'  c #52652C",
"]  c #67752E",
"[  c #455F50",
"{  c #655C4F",
"}  c #76644F",
"|  c #6C605D",
" . c #786955",
".. c #615E71",
"X. c #7F7976",
"o. c #8C5C31",
"O. c #865928",
"+. c #8E652C",
"@. c #976D20",
"#. c #956A38",
"$. c #A37239",
"%. c #806C53",
"&. c #96784A",
"*. c #A77B47",
"=. c #1E8729",
"-. c #178129",
";. c #348E24",
":. c #2B962A",
">. c #399525",
",. c #389828",
"<. c #288B27",
"1. c #3EA52A",
"2. c #4E9218",
"3. c #7A8316",
"4. c #75BD1B",
"5. c #419922",
"6. c #4E8626",
"7. c #41A429",
"8. c #58A32C",
"9. c #61B123",
"0. c #72A631",
"q. c #6AA521",
"w. c #B5921D",
"e. c #B2B110",
"r. c #AE8E2C",
"t. c #BE992E",
"y. c #AB863D",
"u. c #B28F37",
"i. c #BA8C36",
"p. c #BC9E31",
"a. c #B79439",
"s. c #BCA42D",
"d. c #DCBF2A",
"f. c #C5A638",
"g. c #DAB837",
"h. c #C8AD2A",
"j. c #98C61B",
"k. c #8AC115",
"l. c #A3C810",
"z. c #D9C90D",
"x. c #DBD115",
"c. c #E5DA12",
"v. c #E1DE1C",
"b. c #E6DD04",
"n. c #EAE00F",
"m. c #F3EC0A",
"M. c #ECE414",
"N. c #E9C630",
"B. c #E5C92D",
"V. c #AA8043",
"C. c #B98B46",
"Z. c #BF9C48",
"A. c #AE8659",
"S. c #9A8B73",
"D. c #B2966B",
"F. c #A89275",
"G. c #AC8664",
"H. c #A7A677",
"J. c #C99B4A",
"K. c #C89D46",
"L. c #C3A44F",
"P. c #D6AC4C",
"I. c #C5A579",
"U. c #717791",
"Y. c #3593A9",
"T. c #6BAC9B",
"R. c #9A908C",
"E. c #A19A8A",
"W. c #9DA69E",
"Q. c #8FBD99",
"!. c #ABB082",
"~. c #CFB184",
"^. c #D3B184",
"/. c #D3B58C",
"(. c #D9BA92",
"). c #BCC592",
"_. c #DBC09B",
"`. c #E3C49C",
"'. c #F7E197",
"]. c #DEC5A0",
"[. c #CEC6BA",
"{. c #E8CCA4",
"}. c #FBDCB2",
"|. c #F3DAA4",
" X c #FDE2B8",
".X c #91A5D1",
"XX c #ACB1C2",
"oX c #CAD8C3",
"OX c #FFF6E1",
"+X c #FFFEF1",
/* pixels */
"                                                            ",
"                                                            ",
"                  o.( ;.z >.7.7.7.7.                        ",
"                C.p.e.k.S Z ,.7.7.7.7.  b                   ",
"              p.L.g.M.v.0.A S >.7.7.7.1.B l                 ",
"            u.c.h.V.C.P.P.8.B S 7.7.7.7.=.c k               ",
"          u.n.f.K.P.J.a.n.9.b Z 1.7.7.7.=.c k               ",
"          u.m.g.$.$.h.x.s.8.b Z ;.b C >.=.J n k             ",
"          y.N.i.*.*.L.h.y.l.2.Z Z Z Z <.-.K N 4             ",
"          *.i.W G.].^.A.y.n.4.P B ;.:.K K K N 4 .           ",
"            j @ %.(.].~.a.c.q.L N x J H K K N 4 .           ",
"              X f d { '.M.p.J.] c P x J K K N 4 .           ",
"            + %...U.[.|.L.L.$.&.H.).H.I x G v $             ",
"            + F.U..X+X{.#.d.@.A.}. XI.M 5 N l .             ",
"            +  .U.XXOX{.O.b.w.E.oX~.) % & x l .             ",
"              X  .(. X{.o.b.N.T.Y.) ; * O 1 1 .             ",
"              X #  .(./.D.#.z.3.= w D.x.  . o               ",
"            X y S.X.e ` ` 8 r.Q o 6 e E                     ",
"              : | [ l N v $ ' M # 0 . .                     ",
"              . & D >.K H 7 n T ~ r %                       ",
"              . C j.l.L I d Y Q.R.% 4 o X                   ",
"        . . . . C ,.U / W > W.E.g 9 + . y : .               ",
"      ; u y < X n :.,.6.6.n F g f ) F.- u a , .             ",
"    . , _ h i , 6 z C :.1.:.c 3 f F. .# r j r .             ",
"      ; p h s s @ . & n I S B 1 g S.+ . < f r .             ",
"        @ t t 9 @     . o . X . X X   . > s > .             ",
"          X X X                         X X X               ",
"                                                            ",
"                                                            ",
"                                                            "
};
