/* XPM */
static char *_f77c1b76ccf4e8afc5c953124a7a4fcUAzJSKBRrWWPaN9G[] = {
/* columns rows colors chars-per-pixel */
"30 30 182 2 ",
"   c None",
".  c #020202",
"X  c #0B0605",
"o  c #010C05",
"O  c #0F0A06",
"+  c #130C07",
"@  c #021407",
"#  c #081A0A",
"$  c #071D07",
"%  c #1D110B",
"&  c #131205",
"*  c #000B17",
"=  c #0A1616",
"-  c #26160C",
";  c #291711",
":  c #251812",
">  c #062A0E",
",  c #04230D",
"<  c #1F240F",
"1  c #0A3B12",
"2  c #0C3711",
"3  c #193314",
"4  c #23210F",
"5  c #3F2C22",
"6  c #472814",
"7  c #41251A",
"8  c #452716",
"9  c #512D1A",
"0  c #4D3819",
"q  c #4A372A",
"w  c #593623",
"e  c #4D3F3B",
"r  c #613720",
"t  c #703F21",
"y  c #0A4B19",
"u  c #074113",
"i  c #1A4114",
"p  c #0E531B",
"a  c #19591D",
"s  c #2A6D1C",
"d  c #396115",
"f  c #2E701D",
"g  c #136A22",
"h  c #137527",
"j  c #147D2C",
"k  c #1F7825",
"l  c #2F6B26",
"z  c #286325",
"x  c #397724",
"c  c #5B491F",
"v  c #76591C",
"b  c #716C06",
"n  c #6F780E",
"m  c #585C22",
"M  c #4A413C",
"N  c #514233",
"B  c #50503C",
"V  c #774B25",
"C  c #6B4930",
"Z  c #695E31",
"A  c #6D4E27",
"S  c #5E6223",
"D  c #29394B",
"F  c #524746",
"G  c #755B49",
"H  c #685846",
"J  c #72604A",
"K  c #5D5B74",
"L  c #7D786D",
"P  c #85562B",
"I  c #855C3C",
"U  c #826128",
"Y  c #946E2E",
"T  c #9E7520",
"R  c #87623B",
"E  c #91643F",
"W  c #9A7435",
"Q  c #86644E",
"!  c #9E734F",
"~  c #9D7552",
"^  c #867354",
"/  c #A47A4F",
"(  c #907262",
")  c #168229",
"_  c #1B8529",
"`  c #258D29",
"'  c #278325",
"]  c #338B27",
"[  c #349929",
"{  c #349528",
"}  c #3DA029",
"|  c #4E971F",
" . c #76811B",
".. c #55A21D",
"X. c #479B2A",
"o. c #5E8632",
"O. c #639B31",
"+. c #4BA328",
"@. c #4DA725",
"#. c #A1BD11",
"$. c #808731",
"%. c #839634",
"&. c #AE8A3B",
"*. c #B28638",
"=. c #BE9734",
"-. c #ADA22E",
";. c #BFB028",
":. c #B4AC31",
">. c #C6BA15",
",. c #C4A82B",
"<. c #CEB723",
"1. c #CEB428",
"2. c #D2B924",
"3. c #B4D60D",
"4. c #D2C60F",
"5. c #C5C01F",
"6. c #DBC61E",
"7. c #DCCB1B",
"8. c #D4C21E",
"9. c #D1D415",
"0. c #E6DB0E",
"q. c #E3CF19",
"w. c #E6D817",
"e. c #DCE40D",
"r. c #EDE30E",
"t. c #F8EF0F",
"y. c #FDFC01",
"u. c #F7F405",
"i. c #F6EC11",
"p. c #D8C234",
"a. c #E9D028",
"s. c #E2C332",
"d. c #AB844E",
"f. c #AE8941",
"g. c #B28F42",
"h. c #B99749",
"j. c #B9935F",
"k. c #AF8B56",
"l. c #9D8A6D",
"z. c #9E9F6C",
"x. c #A88566",
"c. c #A4946F",
"v. c #BC9767",
"b. c #A59175",
"n. c #BB9B77",
"m. c #A7A976",
"M. c #B2A17E",
"N. c #C59A42",
"B. c #CBA242",
"V. c #DBAD48",
"C. c #DFB14A",
"Z. c #C39E78",
"A. c #C7A375",
"S. c #3C7A8A",
"D. c #4A5C91",
"F. c #2B95B6",
"G. c #5B9B84",
"H. c #7B89AE",
"J. c #BCAA9C",
"K. c #9197A0",
"L. c #8A9ABD",
"P. c #A1A0A8",
"I. c #CCAA82",
"U. c #D0AE80",
"Y. c #D7B68C",
"T. c #D7B895",
"R. c #CCBAA2",
"E. c #DBC19B",
"W. c #E2C39B",
"Q. c #CCCAAF",
"!. c #E6C9A3",
"~. c #E9CDA6",
"^. c #EFD3A9",
"/. c #F9DDB5",
"(. c #F5D9B3",
"). c #F2D6AB",
"_. c #FEE5BC",
"`. c #A1AAC3",
"'. c #C7C8CF",
"]. c #FFE9C5",
"[. c #E5E0DB",
"{. c #FBEDD7",
/* pixels */
"                                                            ",
"                                                            ",
"                                                            ",
"                                                            ",
"                                                            ",
"                        2 ) g #                             ",
"                  o y ' ] [ { ' h ,                         ",
"                o y h _ _ _ _ _ j h >                       ",
"              . p ] +.+.+.@.@.X.@.X.k >                     ",
"              @ x %.5.5.:.e.e.-.9.-.O.i .                   ",
"            & a  .8.1.1.8.<.y.r.:.q.p.o.3 :                 ",
"        d.I.I v 6.1.B.B.,.u.y.r.&.&.7.,.U ~ A.W             ",
"        Q W.Q.k.0.s.a.6.<.y.w.h.I.j.f.8.-.I.Z.V             ",
"          G F.^ q.,.2.t.t.w.h.Y._.).k.*.G.S.P               ",
"            = v =.P W C.V.N.v.^.W.n.E >.n *                 ",
"            + >.T q H d.*./ U.n.G M I 6.b .                 ",
"            + W A J.L.K x.W.~.( D.'.^ Y c                   ",
"              O X l.P.`.{._._.[.H.R.N X                     ",
"                . A n.~._.(./.(.T.d.w ; +                   ",
"                . 7 Q ( c.m.m.z.Z w 8 6 ;                   ",
"                & D K.L 2 j j ) h < X .                     ",
"              . 9 F e 0 d ..X.l l m 3 @                     ",
"              . C ! q 4  .3.#.m m X.' >                     ",
"              X G c.B u _ ` ` ` X.{ g ,                     ",
"                X X $ 1 a s s f x z #                       ",
"                      . . . . X 7 w ; O                     ",
"                              X 9 t r %                     ",
"                              O 7 8 8 -                     ",
"                                . . .                       ",
"                                                            "
};
