/* XPM */
static char *_127900408714012ed7b855dfd925d41De96sxeeqjnpNHGd[] = {
/* columns rows colors chars-per-pixel */
"30 30 129 2 ",
"   c None",
".  c #071D0B",
"X  c #0C1E09",
"o  c #102B0E",
"O  c #0C2E11",
"+  c #0C3012",
"@  c #0B3C14",
"#  c #143E15",
"$  c #0D4317",
"%  c #0A4917",
"&  c #0C4A19",
"*  c #1B4515",
"=  c #1C4816",
"-  c #164719",
";  c #0F531E",
":  c #11531E",
">  c #235A1D",
",  c #2D5B1D",
"<  c #145521",
"1  c #155C23",
"2  c #176726",
"3  c #1C6425",
"4  c #196827",
"5  c #176928",
"6  c #1A6D29",
"7  c #1A712B",
"8  c #1D7D30",
"9  c #246623",
"0  c #2F6121",
"q  c #256B25",
"w  c #2C6B23",
"e  c #216E29",
"r  c #346B27",
"t  c #3F6E24",
"y  c #257027",
"u  c #2B7627",
"i  c #247329",
"p  c #317525",
"a  c #397127",
"s  c #367A29",
"d  c #3F7D2C",
"f  c #447F27",
"g  c #427F2B",
"h  c #4C7A30",
"j  c #1F8131",
"k  c #26822D",
"l  c #2D852D",
"z  c #28892F",
"x  c #30822A",
"c  c #358A2E",
"v  c #3A8C2D",
"b  c #218633",
"n  c #248C33",
"m  c #348F30",
"M  c #398E32",
"N  c #269135",
"B  c #299435",
"V  c #2D9C36",
"C  c #369031",
"Z  c #3B9534",
"A  c #33A337",
"S  c #3DA835",
"D  c #33A639",
"F  c #37AB3B",
"G  c #38AE3B",
"H  c #3EB23A",
"J  c #45822C",
"K  c #4A872A",
"L  c #47882E",
"P  c #468431",
"I  c #4C8D34",
"U  c #528A36",
"Y  c #548C38",
"T  c #4D9234",
"R  c #439C34",
"E  c #4B9D39",
"W  c #529234",
"Q  c #579D35",
"!  c #599C34",
"~  c #56933A",
"^  c #549D3B",
"/  c #45AA33",
"(  c #49A933",
")  c #4FA13C",
"_  c #47AA3A",
"`  c #49AD39",
"'  c #5BA137",
"]  c #55A33B",
"[  c #56AC3E",
"{  c #5FAC3B",
"}  c #46B037",
"|  c #4DB434",
" . c #41B439",
".. c #46BE3C",
"X. c #48BC3A",
"o. c #52B536",
"O. c #52BC37",
"+. c #54B33C",
"@. c #52BB3D",
"#. c #5FB839",
"$. c #61B539",
"%. c #4BC33C",
"&. c #52C03B",
"*. c #5AC43C",
"=. c #50CA3E",
"-. c #58C83E",
";. c #5AD73E",
":. c #66C83F",
">. c #5DB640",
",. c #60B941",
"<. c #4BCC42",
"1. c #4FD143",
"2. c #52D543",
"3. c #57D842",
"4. c #58D842",
"5. c #5EDF40",
"6. c #66C047",
"7. c #6AC940",
"8. c #6EC84B",
"9. c #70CB49",
"0. c #75D04C",
"q. c #5DE143",
"w. c #5FE243",
"e. c #62E542",
"r. c #61E743",
"t. c #61E945",
"y. c #62E944",
"u. c #64EB44",
"i. c #65EC44",
/* pixels */
"                                                            ",
"                                                            ",
"                                                            ",
"                                                            ",
"                                                            ",
"                                                            ",
"                      r W Q ! f J ! Q W 0                   ",
"                    L [ +.*.*.o.| 6.*.+.] g                 ",
"                  U ^ _ ;.q.1.1.1.2.r.;.` ^ h               ",
"                  ^ R  .%.H F D A G H ..S E I               ",
"                  v M z B B n b b n B B k v s               ",
"                    w u e 5 5 5 4 2 4 6 u w                 ",
"              u w > * = > 3 1 : ; : 9 > = = > w r           ",
"          ~ E c l e q 9 # + & & % $ O - 9 e i l C E Y       ",
"      , Q ) X.H V b 6 4 3 : & & % % ; 3 3 7 n V H ` ^ W     ",
"      d 6./ u.%.A B j 5 1 ; : @ $ ; ; 2 6 b V A %.t./ 8.r   ",
"      J 8.| r.1.G V n 8 6 : y . O y < 7 j N V G 2.e.( 9.a   ",
"        Q #.O.=.<.G A B b < x X o l 1 n B D F <.=.O.$.W     ",
"          K :.O.u.4...D V 3 v X o c i V A %.4.t.| 7.t       ",
"            { >.+.1.@._ Z M w     p M Z _ @.-.@.,.'         ",
"              P T T Y ~ J           r P ~ I T I P           ",
"                                                            ",
"                                                            ",
"                                                            ",
"                                                            ",
"                                                            ",
"                                                            ",
"                                                            ",
"                                                            ",
"                                                            "
};
