/* XPM */
static char *result[] = {
/* columns rows colors chars-per-pixel */
"30 30 134 2 ",
"   c #691207",
".  c #73160B",
"X  c #7D170B",
"o  c #7A190E",
"O  c #723024",
"+  c #7E5144",
"@  c #841C0F",
"#  c #891E10",
"$  c #932012",
"%  c #9C2515",
"&  c #9F2817",
"*  c #9F2718",
"=  c #A32515",
"-  c #A92717",
";  c #A92917",
":  c #A52C1B",
">  c #AE2C1B",
",  c #B42C1A",
"<  c #BA2D1B",
"1  c #B7311E",
"2  c #BD321E",
"3  c #AC3725",
"4  c #B13121",
"5  c #BC3522",
"6  c #BC3A24",
"7  c #C2341E",
"8  c #C9361F",
"9  c #C33621",
"0  c #CB3621",
"q  c #C33822",
"w  c #CC3A25",
"e  c #C23A28",
"r  c #CD3E29",
"t  c #D33D25",
"y  c #D83F27",
"u  c #D33F28",
"i  c #904536",
"p  c #9A4737",
"a  c #AF402C",
"s  c #B3412E",
"d  c #B8472B",
"f  c #B34A37",
"g  c #BF503A",
"h  c #C94526",
"j  c #C7472A",
"k  c #CE402B",
"l  c #C14B29",
"z  c #D74027",
"x  c #D84027",
"c  c #D5422B",
"v  c #D9422B",
"b  c #D84F2C",
"n  c #C15035",
"m  c #C8643A",
"M  c #CE6C3A",
"N  c #C27937",
"B  c #835547",
"V  c #865748",
"C  c #845B4E",
"Z  c #8B5C4E",
"A  c #925D4D",
"S  c #8C5F51",
"D  c #925F50",
"F  c #A15241",
"G  c #A55C4A",
"H  c #B45440",
"J  c #BF5641",
"K  c #BE5C47",
"L  c #8D6454",
"P  c #B5604D",
"I  c #B8614C",
"U  c #AC6654",
"Y  c #AC6D5C",
"T  c #B36652",
"R  c #B56E5B",
"E  c #B0725F",
"W  c #B57561",
"Q  c #BB7463",
"!  c #B57B65",
"~  c #BB7965",
"^  c #B67D6B",
"/  c #C26957",
"(  c #C47966",
")  c #C27C6B",
"_  c #C58039",
"`  c #B6806F",
"'  c #BF8976",
"]  c #DE8847",
"[  c #E99F4D",
"{  c #C38473",
"}  c #CA8573",
"|  c #C68876",
" . c #BF9987",
".. c #C09282",
"X. c #CA9783",
"o. c #C6A18C",
"O. c #CDA08C",
"+. c #CEA693",
"@. c #C0AA94",
"#. c #C8A993",
"$. c #C8A999",
"%. c #D0A895",
"&. c #C6B297",
"*. c #C7B19A",
"=. c #CAB69B",
"-. c #D2B09D",
";. c #CFBCA4",
":. c #CFBEA9",
">. c #D3B5A2",
",. c #D2BDA6",
"<. c #D4BFAB",
"1. c #CFC0A9",
"2. c #D3C0A6",
"3. c #D5C4AC",
"4. c #D8C7AF",
"5. c #D2C6B5",
"6. c #D9C4B3",
"7. c #D5C8B4",
"8. c #DCCDB6",
"9. c #D4CAB9",
"0. c #DDCDBA",
"q. c #DED1BC",
"w. c #E1D3BD",
"e. c #D2CCC0",
"r. c #DAD7D1",
"t. c #DCD9D2",
"y. c #E3D5C2",
"u. c #E5D9C6",
"i. c #E8DAC7",
"p. c #E7DBC8",
"a. c #E9DECB",
"s. c #E1DED6",
"d. c #E1DED8",
"f. c None",
/* pixels */
"f.f.f.f.f.f.f.f.f.f.f.f.f.f.f.f.f.f.f.f.f.f.f.f.f.f.f.f.f.f.",
"y.w.w.w.w.w.w.w.w.w.w.w.w.w.w.w.w.w.w.w.q.q.w.q.w.w.w.q.4.f.",
"p.w.w.w.w.w.w.w.w.w.y.w.y.y.y.y.y.y.y.y.q.8.q.1.w.w.w.w.7.f.",
"f.f.2.;.;.@.C + B B V Z Z A D A D Z Z S S S Z L =.&.2.2.f.f.",
"f.f.f.7.8.*.O   . o # $ % % % % % = % $ @ @ X i 2.4.4.f.f.f.",
"f.f.f.q.w.2.p % & > 1 2 2 5 5 5 5 5 5 , : % $ G 8.w.f.f.f.f.",
"f.f.f.q.,.:.F = > 1 2 2 2 2 2 2 2 5 < < < : $ Y w.w.f.f.f.f.",
"f.f.f.y.4.7.G ; 5 5 7 2 7 7 7 7 7 7 9 7 5 3 % ^ u.y.f.f.f.f.",
"f.f.f.f.y.w.U ; 5 6 7 7 7 7 d q 7 7 7 7 6 6 &  .p.y.f.f.f.f.",
"f.f.f.f.y.w.E , 5 5 7 7 7 q d q 7 7 7 7 6 5 3 ..y.y.f.f.f.f.",
"f.f.f.f.w.p.` 1 6 q 0 w 8 t t w w w 8 7 q 5 3 $.0.y.f.f.f.f.",
"f.f.f.f.y.p.| 2 w r t z x x x x z z z w e 9 3 6.y.f.f.f.f.f.",
"f.f.f.f.y.p.X.e z w z z v c v c c c z r t 0 f 0.i.f.f.f.f.f.",
"f.f.f.f.y.p.X.j b w k c c v v c v c k t t w K y.y.f.f.f.f.f.",
"f.f.f.f.y.p.+.] [ h c c c v v c v c c u t 0 / y.y.f.f.f.f.f.",
"f.f.f.f.y.i.-.M N l c v v v v v v v t c u 0 ( y.q.f.f.f.f.f.",
"f.f.f.f.f.p.>.m N l c c c c v v c c t c t 0 | q.y.f.f.f.f.f.",
"f.f.f.f.f.p.3.n h w u c c c c c c c t t t q X.p.f.f.f.f.f.f.",
"f.f.f.f.f.y.,.n 0 w w t c c c c k c r r r 6 +.p.f.f.f.f.f.f.",
"f.f.f.f.f.y.<.J 0 r t y t z z t c t t r w 6 >.p.f.f.f.f.f.f.",
"f.f.f.f.f.y.0.K 0 t w y y t t t t t u r w 6 <.u.f.f.f.f.f.f.",
"f.f.f.f.f.y.0.I 0 w w t t t t t t t t r 0 f 9.y.f.f.f.f.f.f.",
"f.f.f.f.f.y.0.T 8 0 0 t t t t t t t w r 9 H 0.y.f.f.f.f.f.f.",
"f.f.f.f.f.y.q.R < 0 0 0 t 0 t w t w w 9 < K e.y.f.f.f.f.f.f.",
"f.f.f.f.f.q.q.W ; 2 9 w 0 w w w w 0 7 < , R w.f.f.f.f.f.f.f.",
"f.f.f.f.f.f.8.! % ; , 7 8 0 9 9 7 < , , = ! 0.f.f.f.f.f.f.f.",
"f.f.f.f.f.y.:.#.{ ) { { } } { { ) ) ( Q Q o.<.f.f.f.f.f.f.f.",
"f.f.f.f.0.y.w.p.a.a.a.a.a.a.a.a.a.a.a.p.p.y.y.y.y.f.f.f.f.f.",
"f.f.f.f.e.9.9.7.9.5.5.5.5.5.5.5.5.5.e.5.9.9.9.9.9.f.f.f.f.f.",
"f.f.f.s.s.t.s.t.t.t.t.t.r.t.t.t.r.t.t.r.r.r.t.t.t.t.f.f.f.f."
};
