/* XPM */
static char *result[] = {
/* columns rows colors chars-per-pixel */
"30 30 170 2 ",
"   c #72697D",
".  c #992619",
"X  c #A12617",
"o  c #AC2B1A",
"O  c #A52A19",
"+  c #B02E1D",
"@  c #AF301D",
"#  c #B6301D",
"$  c #BD321E",
"%  c #BD3522",
"&  c #B63926",
"*  c #C0331E",
"=  c #C23621",
"-  c #C53A23",
";  c #CB3B24",
":  c #CF3E29",
">  c #D33E26",
",  c #D83F27",
"<  c #D13F29",
"1  c #BD432C",
"2  c #BA4835",
"3  c #CE452C",
"4  c #C6472E",
"5  c #D5422A",
"6  c #DA442C",
"7  c #DA482F",
"8  c #C44F36",
"9  c #CB4A33",
"0  c #D64C32",
"q  c #CB5339",
"w  c #C6513C",
"e  c #D45A3D",
"r  c #DC5C3D",
"t  c #D55638",
"y  c #C67A3A",
"u  c #E16E3C",
"i  c #AA5C4C",
"p  c #AD614F",
"a  c #BA604E",
"s  c #BC6C5A",
"d  c #9B7673",
"f  c #B77662",
"g  c #C25943",
"h  c #C85E46",
"j  c #DD6241",
"k  c #C56753",
"l  c #C2735F",
"z  c #DB785E",
"x  c #E16645",
"c  c #E36945",
"v  c #E47E4D",
"b  c #E67543",
"n  c #C67A68",
"m  c #BE8976",
"M  c #E0834C",
"N  c #E09B48",
"B  c #E38751",
"V  c #EF9E51",
"C  c #C4826C",
"Z  c #CA8B76",
"A  c #DB957B",
"S  c #045EAC",
"D  c #0661AC",
"F  c #1B6DB1",
"G  c #176AB0",
"H  c #2A77B4",
"J  c #2B78B6",
"K  c #2674B4",
"L  c #567A99",
"P  c #587D99",
"I  c #52779A",
"U  c #4A769B",
"Y  c #6E7C8B",
"T  c #7E7081",
"R  c #897A86",
"E  c #3683BB",
"W  c #3984BB",
"Q  c #60849F",
"!  c #708DA1",
"~  c #438EC1",
"^  c #4491C2",
"/  c #4F99C6",
"(  c #4E9AC7",
")  c #509CC7",
"_  c #59A4CB",
"`  c #57A2CA",
"'  c #65ABCE",
"]  c #72AFCD",
"[  c #7EB5CE",
"{  c #65AFD1",
"}  c #6FB1D1",
"|  c #72B4D3",
" . c #7DBAD6",
".. c #7FBDD8",
"X. c #96898D",
"o. c #A49492",
"O. c #AD9B96",
"+. c #B6A29C",
"@. c #869BA5",
"#. c #97A6A9",
"$. c #A3ACAA",
"%. c #ADB1AB",
"&. c #BAB7AE",
"*. c #C69989",
"=. c #C89F8A",
"-. c #D09683",
";. c #E29C83",
":. c #DBA08A",
">. c #C4A69F",
",. c #CDAA9A",
"<. c #C6A796",
"1. c #D2A592",
"2. c #D4A99C",
"3. c #DEAB9D",
"4. c #CBB69E",
"5. c #D8B09F",
"6. c #E4A28A",
"7. c #E2A694",
"8. c #CDB8A7",
"9. c #D1BDA6",
"0. c #D3BFA9",
"q. c #D8B9A8",
"w. c #C3BDB1",
"e. c #D5C4AD",
"r. c #CCC2B4",
"t. c #CFC8BB",
"y. c #D5C6B2",
"u. c #D7C9B6",
"i. c #DACBB6",
"p. c #DBCCBC",
"a. c #D7C7B8",
"s. c #DED0BF",
"d. c #E1D2BD",
"f. c #89BED6",
"g. c #97BFD1",
"h. c #8BC1DA",
"j. c #95C5DD",
"k. c #9ECADF",
"l. c #97C8DE",
"z. c #BDCDCF",
"x. c #A4C7D6",
"c. c #B3CBD2",
"v. c #A4CEE2",
"b. c #A9D1E2",
"n. c #B2D6E5",
"m. c #BDDDEA",
"M. c #B3D8E7",
"N. c #CECCC3",
"B. c #C5CFCE",
"V. c #D6CEC0",
"C. c #CDD1CC",
"Z. c #D7D3CC",
"A. c #D9D4CC",
"S. c #D5D0C7",
"D. c #DDDAD2",
"F. c #E4D5C3",
"G. c #E6D8C5",
"H. c #E8D8C6",
"J. c #E7DACA",
"K. c #E9DBC9",
"L. c #E1DDD7",
"P. c #EEE2D4",
"I. c #C7E2ED",
"U. c #C8E2ED",
"Y. c #D3E9F2",
"T. c #DBECF3",
"R. c #D4E7F2",
"E. c #E2E9E7",
"W. c #E3EBE8",
"Q. c None",
/* pixels */
"Q.Q.Q.Q.Q.Q.Q.Q.Q.Q.Q.Q.Q.Q.Q.g Q.Q.Q.Q.Q.Q.Q.Q.Q.Q.Q.Q.Q.Q.",
"Q.Q.Q.Q.Q.Q.Q.Q.Q.Q.Q.Q.Q.Q.z 8 . . Q.Q.Q.Q.Q.Q.Q.Q.Q.Q.Q.Q.",
"Q.F.F.G.G.F.d.G.H.H.H.F.F.F.;.8 . + # & a 1.p.F.F.F.H.F.F.u.",
"Q.F.F.d.d.F.d.s.d.d.d.F.d.F.6.q O # $ = $ & i *.8.F.d.F.d.p.",
"Q.Q.Q.e.e.e.<.Y I L L P P Q d q @ % % = % = o . i 0.4.e.e.Q.",
"Q.Q.Q.Q.i.d.4.U S S D D D D   q $ = - * = * $ X p p.d.Q.Q.Q.",
"Q.Q.Q.Q.d.d.9.Q G F F F F F   r = - - * - = $ O f F.H.Q.Q.Q.",
"Q.Q.Q.Q.d.e.e.! K H J J J J R e - - ; * 4 - 4 @ m G.G.Q.Q.Q.",
"Q.Q.Q.Q.F.d.i.@.J W W W W W R r - ; ; 3 1 * * # *.H.G.Q.Q.Q.",
"Q.Q.Q.Q.H.H.d.@.~ ^ ~ ~ ^ ^ X.j - ; * > ; * 3 & ,.J.H.Q.Q.Q.",
"Q.Q.Q.Q.Q.H.F.#./ / ) ) ) ) X.j ; 5 6 6 6 > * 1 ,.G.G.Q.Q.Q.",
"Q.Q.Q.Q.Q.H.F.$.) _ _ _ _ _ o.x 6 6 6 6 6 6 5 2 y.G.Q.Q.Q.Q.",
"Q.Q.Q.Q.Q.K.H.%.' ' ' { { { o.c 6 6 6 6 6 6 , g F.H.Q.Q.Q.Q.",
"Q.Q.Q.Q.Q.H.H.&.] } } | | | O.c 7 7 7 7 7 5 , k G.G.Q.Q.Q.Q.",
"Q.Q.Q.Q.Q.H.K.&.[  . . ...f.+.v V b 6 6 6 5 , n K.J.Q.Q.Q.Q.",
"Q.Q.Q.Q.Q.K.K.&.f.f.h.f.h.h.+.M N c 7 6 7 7 , Z J.G.Q.Q.Q.Q.",
"Q.Q.Q.Q.Q.H.K.w.g.j.j.j.j.l.>.B y 0 7 7 7 6 5 -.s.d.Q.Q.Q.Q.",
"Q.Q.Q.Q.Q.J.K.y.x.k.l.k.v.x.>.M y 3 7 7 6 6 < 1.J.Q.Q.Q.Q.Q.",
"Q.Q.Q.Q.Q.Q.K.y.x.b.v.b.b.b.>.j 5 5 7 7 6 5 3 q.J.Q.Q.Q.Q.Q.",
"Q.Q.Q.Q.Q.Q.A.8.c.M.n.M.n.M.2.j > 5 7 5 5 , 9 q.K.Q.Q.Q.Q.Q.",
"Q.Q.Q.Q.Q.Q.H.u.z.m.m.m.m.m.2.r , , 6 6 6 5 w p.K.Q.Q.Q.Q.Q.",
"Q.Q.Q.Q.Q.Q.G.i.B.I.I.I.U.U.2.r , 6 , , 5 , g F.G.Q.Q.Q.Q.Q.",
"Q.Q.Q.Q.Q.Q.G.i.C.Y.Y.R.R.R.3.j 5 6 , , , > k F.H.Q.Q.Q.Q.Q.",
"Q.Q.Q.Q.Q.Q.G.i.Z.T.T.T.T.T.7.t < , , , < ; l F.H.Q.Q.Q.Q.Q.",
"Q.Q.Q.Q.Q.Q.G.i.N.T.T.T.T.T.7.t < , , , : = n G.Q.Q.Q.Q.Q.Q.",
"Q.Q.Q.Q.Q.Q.d.i.t.T.T.T.T.T.3.t ; > < : ; % Z A.Q.Q.Q.Q.Q.Q.",
"Q.Q.Q.Q.Q.Q.p.0.t.E.E.E.W.W.7.9 - ; : ; % & =.y.Q.Q.Q.Q.Q.Q.",
"Q.Q.Q.Q.Q.G.G.G.K.P.P.P.P.P.6.4 * > > & k 3.F.F.K.Q.Q.Q.Q.Q.",
"Q.Q.Q.Q.Q.t.p.s.V.V.p.a.p.a.;.4 + & s >.a.V.p.d.p.t.Q.Q.Q.Q.",
"Q.Q.Q.Q.L.L.A.A.D.A.A.A.Z.Z.-.h n 8.C.D.A.A.A.A.A.D.P.Q.Q.Q."
};
