/* XPM */
static char *_d9d4f337f1a42a1fce139270aff954cd1B4XDE2oqQcPGxX[] = {
/* columns rows colors chars-per-pixel */
"30 30 187 2 ",
"   c None",
".  c #020101",
"X  c #010C05",
"o  c #0E0805",
"O  c #0D0705",
"+  c #130A09",
"@  c #041909",
"#  c #141515",
"$  c #24130C",
"%  c #331D0F",
"&  c #271611",
"*  c #341C10",
"=  c #05280D",
"-  c #083B14",
";  c #0F2C10",
":  c #282419",
">  c #3A2313",
",  c #382816",
"<  c #2A3C17",
"1  c #052126",
"2  c #382F24",
"3  c #3C362C",
"4  c #482A17",
"5  c #542F1C",
"6  c #453618",
"7  c #563118",
"8  c #503B1C",
"9  c #683A1D",
"0  c #473727",
"q  c #413A30",
"w  c #5C3E33",
"e  c #543C2B",
"r  c #663C22",
"t  c #0B4617",
"y  c #194D13",
"u  c #0F591D",
"i  c #165B1C",
"p  c #23491A",
"a  c #215315",
"s  c #3E4A1D",
"d  c #14651E",
"f  c #34781E",
"g  c #0F6823",
"h  c #177728",
"j  c #147C2B",
"k  c #197827",
"l  c #176A21",
"z  c #227127",
"x  c #337327",
"c  c #57451D",
"v  c #475C1D",
"b  c #6E5E1F",
"n  c #5E4C21",
"m  c #4E5F28",
"M  c #5D5323",
"N  c #5F4D3B",
"B  c #565D30",
"V  c #614B22",
"C  c #744222",
"Z  c #74482A",
"A  c #7A4F31",
"S  c #6E5038",
"D  c #7C5734",
"F  c #664C31",
"G  c #436827",
"H  c #567225",
"J  c #6D6839",
"K  c #2C3746",
"L  c #2E5C43",
"P  c #685747",
"I  c #546B48",
"U  c #757C54",
"Y  c #524E67",
"T  c #8A5C2E",
"R  c #8F5F31",
"E  c #8F6424",
"W  c #92662B",
"Q  c #8E6130",
"!  c #936638",
"~  c #8F773C",
"^  c #A47F34",
"/  c #976C48",
"(  c #9A7945",
")  c #916E54",
"_  c #9A7956",
"`  c #A17550",
"'  c #178129",
"]  c #1B8429",
"[  c #1F8628",
"{  c #238526",
"}  c #378825",
"|  c #2C952A",
" . c #26922A",
".. c #379C29",
"X. c #3E9D2A",
"o. c #319028",
"O. c #519F1E",
"+. c #4B981F",
"@. c #498927",
"#. c #458127",
"$. c #409F29",
"%. c #4F9730",
"&. c #758836",
"*. c #41A128",
"=. c #42A227",
"-. c #4F8B54",
";. c #999915",
":. c #BA9E10",
">. c #B6BE0C",
",. c #8D833C",
"<. c #959135",
"1. c #BC992F",
"2. c #AF893D",
"3. c #B48B38",
"4. c #BB9738",
"5. c #A58A2C",
"6. c #A2A32D",
"7. c #BDA129",
"8. c #B0B822",
"9. c #D3BC1F",
"0. c #C4A829",
"q. c #D2BC21",
"w. c #CAA83E",
"e. c #D5AF3A",
"r. c #D7C41B",
"t. c #CADD10",
"y. c #C5D40B",
"u. c #ECDA1D",
"i. c #D5EB08",
"p. c #EBE30C",
"a. c #F6F007",
"s. c #F8F309",
"d. c #F4EA11",
"f. c #D9C422",
"g. c #DAC126",
"h. c #E4CC28",
"j. c #EAD12A",
"k. c #8C8D5B",
"l. c #B38645",
"z. c #B38B5A",
"x. c #B68B5B",
"c. c #B08A50",
"v. c #96846A",
"b. c #AA8965",
"n. c #B48D67",
"m. c #B3936F",
"M. c #A1A571",
"N. c #CA9B47",
"B. c #CDA343",
"V. c #D8AB4A",
"C. c #E0B34A",
"Z. c #C19D6F",
"A. c #C09C77",
"S. c #CAA479",
"D. c #B4DF42",
"F. c #5B678A",
"G. c #5068A3",
"H. c #7F87A1",
"J. c #52C0A2",
"K. c #0F9FD8",
"L. c #16A9D8",
"P. c #88929D",
"I. c #B3AE84",
"U. c #A8A796",
"Y. c #B9AA98",
"T. c #9C9AA9",
"R. c #9AA4BF",
"E. c #B7B7B9",
"W. c #A5A4AB",
"Q. c #CEAC83",
"!. c #C7AB81",
"~. c #D4B48B",
"^. c #D8B68A",
"/. c #DBBC93",
"(. c #C7B38C",
"). c #CCBAA8",
"_. c #DFC097",
"`. c #E8C89F",
"'. c #F2D4AB",
"]. c #F5DAB1",
"[. c #E9CFAD",
"{. c #FCE3BB",
"}. c #FFE8BE",
"|. c #E6DCCF",
" X c #E5DED5",
".X c #FFE9C2",
"XX c #FFF2D7",
/* pixels */
"                                                            ",
"                                                            ",
"                    = l [ [ [ [ - @                         ",
"                  = g | ........] t @                       ",
"              X = h j ' ] ' ] ' j j u X                     ",
"            . - k X.*.=.X.X.X.*.$.$.o.d @                   ",
"            . y %.<.t.i.8.,.<.t.6.( &.o.X                   ",
"          . - G ,.2.a.f.q.q.2.a.p.0.<.J i =                 ",
"      z.m., s ~ w.r.j.f.g.g.f.h.f.r.0.^ m , S S.            ",
"    R c._.n.Q 1.j.r.j.f.7.1.s.B.x.w.r.0.W _ Q.Q.!           ",
"      / /.'.z.7.f.4.s.f.4.1.r.c.~.Z.1.u.l./.`.A.C           ",
"        T U.( W l.C.d.d.g.2.! ~.].^.l.N.4.I.v.C             ",
"          L.D.:.Q N.V.l.! / ^.].]./.b.E p.J.K.              ",
"          1 >.9.D , / T _ ^.]./._ 5 0 ^ p.v                 ",
"          X 5.3.) E.F.P n.].'./ Y P.U.Q e.6                 ",
"            , > P |.G.T.[..X.X).G.R.).% 6 :                 ",
"              . 2 S.W. XXX}..XXXE.Y.v.. .                   ",
"              @ < ! S.`.'.'.'.'.^.n.M =                     ",
"            # L -.c M k.M.M.M.M.J c B -.&                   ",
"          o K P.U.a h ' j j j j j i I E.N $ o               ",
"        o C A 0 : M z k z { { k h G 8 : C Z > .             ",
"        # b./.U y @.M c ;.i.y.b V H x p (.!.N .             ",
"          3 3 : ; [ @.x #.O.$.x H o.g @ 3 3 :               ",
"              . X - [ | | | | |  .d @ .                     ",
"              $ * & - y a a a a t ; & * O                   ",
"            . > C 5 & . . . . . + * r 9 o                   ",
"            . * 5 5 * +       . * 4 7 5 +                   ",
"                O . .           . . . .                     ",
"                                                            ",
"                                                            "
};
