/* XPM */
static char *result[] = {
/* columns rows colors chars-per-pixel */
"30 30 196 2 ",
"   c #010201",
".  c #0C0705",
"X  c #030B04",
"o  c #070708",
"O  c #130A06",
"+  c #150C0A",
"@  c #1A0E07",
"#  c #041305",
"$  c #031608",
"%  c #0A1C09",
"&  c #061D08",
"*  c #1A110B",
"=  c #19170C",
"-  c #1B1B13",
";  c #181716",
":  c #0D141C",
">  c #24140B",
",  c #25190C",
"<  c #2C1C0C",
"1  c #331D0E",
"2  c #2C1912",
"3  c #092909",
"4  c #062709",
"5  c #17260D",
"6  c #0B3A0B",
"7  c #0B370B",
"8  c #10360D",
"9  c #093611",
"0  c #1E2D15",
"q  c #282800",
"w  c #3E2312",
"e  c #3A211A",
"r  c #3B2E13",
"t  c #343415",
"y  c #1E262B",
"u  c #2E2A23",
"i  c #3B3023",
"p  c #472B16",
"a  c #4C2B1F",
"s  c #48281A",
"d  c #403D18",
"f  c #513B19",
"g  c #6C3D1F",
"h  c #4A2920",
"j  c #522E20",
"k  c #503828",
"l  c #6D3D20",
"z  c #0D440E",
"x  c #10480F",
"c  c #0C4A17",
"v  c #0D5516",
"b  c #0E5B1A",
"n  c #135315",
"m  c #1C5E15",
"M  c #175914",
"N  c #2F4D1E",
"B  c #26571B",
"V  c #3C5B1E",
"C  c #0F621D",
"Z  c #1E6216",
"A  c #246A19",
"S  c #29761C",
"D  c #2B7B1D",
"F  c #3E5F25",
"G  c #294332",
"H  c #0D6220",
"J  c #0E6B22",
"K  c #116B22",
"L  c #0F7E2A",
"P  c #117324",
"I  c #107B29",
"U  c #167826",
"Y  c #3E6025",
"T  c #307B25",
"R  c #42460C",
"E  c #4F432D",
"W  c #544839",
"Q  c #595836",
"!  c #6F4122",
"~  c #724120",
"^  c #7C4A24",
"/  c #744A2C",
"(  c #665F23",
")  c #765432",
"_  c #76582F",
"`  c #616225",
"'  c #2C435B",
"]  c #554540",
"[  c #675845",
"{  c #517B43",
"}  c #766A59",
"|  c #4B5073",
" . c #6F6E72",
".. c #8A6716",
"X. c #8E5C2F",
"o. c #845536",
"O. c #966736",
"+. c #9F7136",
"@. c #986C48",
"#. c #8B7051",
"$. c #A57C42",
"%. c #A67C50",
"&. c #857465",
"*. c #2C801E",
"=. c #168029",
"-. c #2E8D26",
";. c #238C29",
":. c #288425",
">. c #338D23",
",. c #2C9329",
"<. c #399525",
"1. c #3E9D27",
"2. c #3A9E29",
"3. c #369627",
"4. c #3EA229",
"5. c #79BA19",
"6. c #6DA619",
"7. c #409D27",
"8. c #5F9A30",
"9. c #6F9A34",
"0. c #42A529",
"q. c #58A523",
"w. c #B99D1C",
"e. c #83B112",
"r. c #AA833D",
"t. c #B1803A",
"y. c #B5953B",
"u. c #8FBD28",
"i. c #A7B736",
"p. c #C0AB0A",
"a. c #CABF2F",
"s. c #D8BB29",
"d. c #C5A43E",
"f. c #CDAF2E",
"g. c #E4BF3F",
"h. c #93C125",
"j. c #D4C01F",
"k. c #D0DA06",
"l. c #E5D41A",
"z. c #D1E70A",
"x. c #EDE40C",
"c. c #FFFF01",
"v. c #F6E31C",
"b. c #F8ED13",
"n. c #FCF310",
"m. c #F0EA09",
"M. c #F2DC23",
"N. c #EDCF32",
"B. c #EED130",
"V. c #EACF2A",
"C. c #F9ED28",
"Z. c #968355",
"A. c #AA8043",
"S. c #BE8E49",
"D. c #B58747",
"F. c #B39F48",
"G. c #9D8567",
"H. c #BEA67C",
"J. c #A2A676",
"K. c #C89848",
"L. c #C7AC44",
"P. c #D5A749",
"I. c #CBB041",
"U. c #DEB156",
"Y. c #D6A552",
"T. c #E0B845",
"R. c #C7A67B",
"E. c #3B5A9F",
"W. c #307C8D",
"Q. c #747A94",
"!. c #3A9DA5",
"~. c #7EB48A",
"^. c #809C82",
"/. c #8B8E9C",
"(. c #B6B689",
"). c #9EBBB6",
"_. c #AAAAAB",
"`. c #C7A982",
"'. c #D0AA82",
"]. c #D6B585",
"[. c #CBB492",
"{. c #CEB394",
"}. c #B5C48F",
"|. c #DEC49D",
" X c #CCC3B5",
".X c #E3C8A1",
"XX c #EDD0A8",
"oX c #F7DCB3",
"OX c #F8DFA6",
"+X c #FDE2B6",
"@X c #BBD2C0",
"#X c #D4D0D0",
"$X c #FFF4DB",
"%X c #C1CDE7",
"&X c #FFFDEE",
"*X c None",
/* pixels */
"*X*X*X*X*X*X*X*X*X*X*X*X*X*X*X*X*X*X*X*X*X*X*X*X*X*X*X*X*X*X",
"*X*X*X*X*X*X*X*X*X*X*X*X*X*X*X*X*X*X*X*X*X*X*X*X*X*X*X*X*X*X",
"*X*X*X*X*X*X*X*X*X*X*X*X*X*X*X*X*X*X*X*X*X*X*X*X*X*X*X*X*X*X",
"*X*X*X*X*X*X*X*X*X*X=.,.0.0.1.D M :.` X.A.*X*X*X*X*X*X*X*X*X",
"*X*X*X*X*X*Xz J ;.0.2.0.0.1.Z A q.z.s.Y.P.D.*X*X*X*X*X*X*X*X",
"*X*X*X*X*Xc J ,.2.0.0.0.<.m *.9.L.T.M.b.v.P.K.$.*X*X*X*X*X*X",
"*X*X*X*Xz x I 3.0.0.0.0.>.x >.h.v.M.V.B.B.M.l.j.r.*X*X*X*X*X",
"*X*X*X*Xv C I 2.<.S S <.>.x -.u.v.c.s.D.t.V.n.m.r.*X*X*X*X*X",
"*X*X*Xz C I I ;.*.Z m D D A 6.i.U.l.y.A.O.D.s.l.r.*X*X*X*X*X",
"*X*X  7 C I I I ;.2.<.Z M 1.z.M.Y.D.R.|.'./ X.K.$.*X*X*X*X*X",
"*X*XX 7 C I I I I P n x v :.k.M.U.]..X.X(.e w o.*X*X*X*X*X*X",
"*X*X  7 C I I I C v K v V F.y.a.C.OX} k / * . *X*X*X*X*X*X*X",
"*X*X*X# c P v v { (.}.J.Z.O.K.d.L.+X X/.| &.W   *X*X*X*X*X*X",
"*X*X*X  c P z 4 Q |.+X+X'.~ s.w.@.oX&X%XE.[.[   *X*X*X*X*X*X",
"*X*X*X  9 v 3 X , _ R. X).+.x.p.o.XX&X#XQ.&.W   *X*X*X*X*X*X",
"*X*X*X  4 3 X q t i _ W.!.g.l.w.@.XXoX.X%.- *X*X*X*X*X*X*X*X",
"*X*X*X*X    *Xk.a.G.- X R x...#.H.H.`.&.+ + . *X*X*X*X*X*X*X",
"*X*X*X*X*X*X*Xq = - 8 # r I.r 5 B B 0 y ' k 1   *X*X*X*X*X*X",
"*X*X*X*X*X*X*X*X  . f < 5 8.5 4 H J H 9 : * @ *X*X*X*X*X*X*X",
"*X*X*X*X*X*X    # 3 <  .^.:.t F L L 5.5.B # *X*X*X*X*X*X*X*X",
"*X*X*X*X*XO 1 . X 4 2  .).^.W t Y Y 6.5.0.%   *X*X*X*X*X*X*X",
"*X*X*X*X@ 1 g * ; W ! ]  ._.G t ( ( T ;.-.& O > > > @   *X*X",
"*X*X*X  p l g @ ] [.@./ d 4 K ,.0.7.>.T H $ w g l ~ s   *X*X",
"*X*X*X  1 l a +   u [.[ % J -.<.<.U 9 X . e a j l l p   *X*X",
"*X*X*X  2 j h O   *Xu + X $ % % % $ *X*Xo e h h j > O *X*X*X",
"*X*X*X*XO @ + *X*X*X*X*X*X*X*X*X*X*X*X*X*X* + + + . *X*X*X*X",
"*X*X*X*X*X*X*X*X*X*X*X*X*X*X*X*X*X*X*X*X*X*X*X*X*X*X*X*X*X*X",
"*X*X*X*X*X*X*X*X*X*X*X*X*X*X*X*X*X*X*X*X*X*X*X*X*X*X*X*X*X*X",
"*X*X*X*X*X*X*X*X*X*X*X*X*X*X*X*X*X*X*X*X*X*X*X*X*X*X*X*X*X*X",
"*X*X*X*X*X*X*X*X*X*X*X*X*X*X*X*X*X*X*X*X*X*X*X*X*X*X*X*X*X*X"
};
