/* XPM */
static char *wall_vines01674240660[] = {
/* columns rows colors chars-per-pixel */
"60 60 256 2 ",
"   c black",
".  c #010101",
"X  c #020202",
"o  c gray1",
"O  c #040404",
"+  c gray2",
"@  c #060606",
"#  c #070707",
"$  c gray3",
"%  c #090909",
"&  c gray4",
"*  c #0B0B0B",
"=  c #0C0C0C",
"-  c gray5",
";  c #0E0E0E",
":  c gray6",
">  c #101010",
",  c #111111",
"<  c gray7",
"1  c #131313",
"2  c gray8",
"3  c #151515",
"4  c #161616",
"5  c gray9",
"6  c #181818",
"7  c #191919",
"8  c gray10",
"9  c #1B1B1B",
"0  c gray11",
"q  c #1D1D1D",
"w  c #1E1E1E",
"e  c gray12",
"r  c #202020",
"t  c gray13",
"y  c #222222",
"u  c #232323",
"i  c gray14",
"p  c #252525",
"a  c gray15",
"s  c #272727",
"d  c #282828",
"f  c gray16",
"g  c #2A2A2A",
"h  c gray17",
"j  c #2C2C2C",
"k  c #2D2D2D",
"l  c gray18",
"z  c #2F2F2F",
"x  c gray19",
"c  c #313131",
"v  c #323232",
"b  c gray20",
"n  c #343434",
"m  c #353535",
"M  c gray21",
"N  c #373737",
"B  c gray22",
"V  c #393939",
"C  c #3A3A3A",
"Z  c gray23",
"A  c #3C3C3C",
"S  c gray24",
"D  c #3E3E3E",
"F  c #3F3F3F",
"G  c gray25",
"H  c #414141",
"J  c gray26",
"K  c #434343",
"L  c #444444",
"P  c gray27",
"I  c #464646",
"U  c gray28",
"Y  c #484848",
"T  c #494949",
"R  c gray29",
"E  c #4B4B4B",
"W  c #4C4C4C",
"Q  c gray30",
"!  c #4E4E4E",
"~  c gray31",
"^  c #505050",
"/  c #515151",
"(  c gray32",
")  c #535353",
"_  c gray33",
"`  c #555555",
"'  c #565656",
"]  c gray34",
"[  c #585858",
"{  c gray35",
"}  c #5A5A5A",
"|  c #5B5B5B",
" . c gray36",
".. c #5D5D5D",
"X. c gray37",
"o. c #5F5F5F",
"O. c #606060",
"+. c gray38",
"@. c #626262",
"#. c gray39",
"$. c #646464",
"%. c #656565",
"&. c gray40",
"*. c #676767",
"=. c #686868",
"-. c DimGray",
";. c #6A6A6A",
":. c gray42",
">. c #6C6C6C",
",. c #6D6D6D",
"<. c gray43",
"1. c #6F6F6F",
"2. c gray44",
"3. c #717171",
"4. c #727272",
"5. c gray45",
"6. c #747474",
"7. c gray46",
"8. c #767676",
"9. c #777777",
"0. c gray47",
"q. c #797979",
"w. c gray48",
"e. c #7B7B7B",
"r. c #7C7C7C",
"t. c gray49",
"y. c #7E7E7E",
"u. c gray50",
"i. c #808080",
"p. c #818181",
"a. c gray51",
"s. c #838383",
"d. c #848484",
"f. c gray52",
"g. c #868686",
"h. c gray53",
"j. c #888888",
"k. c #898989",
"l. c gray54",
"z. c #8B8B8B",
"x. c gray55",
"c. c #8D8D8D",
"v. c #8E8E8E",
"b. c gray56",
"n. c #909090",
"m. c gray57",
"M. c #929292",
"N. c #939393",
"B. c gray58",
"V. c #959595",
"C. c gray59",
"Z. c #979797",
"A. c #989898",
"S. c gray60",
"D. c #9A9A9A",
"F. c #9B9B9B",
"G. c gray61",
"H. c #9D9D9D",
"J. c gray62",
"K. c #9F9F9F",
"L. c #A0A0A0",
"P. c gray63",
"I. c #A2A2A2",
"U. c gray64",
"Y. c #A4A4A4",
"T. c #A5A5A5",
"R. c gray65",
"E. c #A7A7A7",
"W. c gray66",
"Q. c #A9A9A9",
"!. c #AAAAAA",
"~. c gray67",
"^. c #ACACAC",
"/. c gray68",
"(. c #AEAEAE",
"). c #AFAFAF",
"_. c gray69",
"`. c #B1B1B1",
"'. c #B2B2B2",
"]. c gray70",
"[. c #B4B4B4",
"{. c gray71",
"}. c #B6B6B6",
"|. c #B7B7B7",
" X c gray72",
".X c #B9B9B9",
"XX c gray73",
"oX c #BBBBBB",
"OX c #BCBCBC",
"+X c gray74",
"@X c gray",
"#X c gray75",
"$X c #C0C0C0",
"%X c #C1C1C1",
"&X c gray76",
"*X c #C3C3C3",
"=X c gray77",
"-X c #C5C5C5",
";X c #C6C6C6",
":X c gray78",
">X c #C8C8C8",
",X c gray79",
"<X c #CACACA",
"1X c #CBCBCB",
"2X c gray80",
"3X c #CDCDCD",
"4X c #CECECE",
"5X c gray81",
"6X c #D0D0D0",
"7X c gray82",
"8X c #D2D2D2",
"9X c LightGray",
"0X c gray83",
"qX c #D5D5D5",
"wX c gray84",
"eX c #D7D7D7",
"rX c #D8D8D8",
"tX c gray85",
"yX c #DADADA",
"uX c gray86",
"iX c gainsboro",
"pX c #DDDDDD",
"aX c gray87",
"sX c #DFDFDF",
"dX c gray88",
"fX c #E1E1E1",
"gX c #E2E2E2",
"hX c gray89",
"jX c #E4E4E4",
"kX c gray90",
"lX c #E6E6E6",
"zX c #E7E7E7",
"xX c gray91",
"cX c #E9E9E9",
"vX c #EAEAEA",
"bX c gray92",
"nX c #ECECEC",
"mX c gray93",
"MX c #EEEEEE",
"NX c #EFEFEF",
"BX c gray94",
"VX c #F1F1F1",
"CX c gray95",
"ZX c #F3F3F3",
"AX c #F4F4F4",
"SX c gray96",
"DX c #F6F6F6",
"FX c gray97",
"GX c #F8F8F8",
"HX c #F9F9F9",
"JX c gray98",
"KX c #FBFBFB",
"LX c gray99",
"PX c #FDFDFD",
"IX c #FEFEFE",
"UX c white",
/* pixels */
"= = = * = 1 9 q 0 0 0 q 8 > > 7 q q q 0 3 ; 2 0 w 9 1 ; ; 1 8 5 ; , 9 q 0 0 0 q 9 < = * > 7 q 0 0 q q 0 2 ; 4 9 1 , 9 t ",
"S S D Z C G Y R T R T U K A A J P P P L F Z F L I J m s 7 r S U G F L U T R T U L G S C A J U T Y P P L F Z H J M f e 9 ",
"B.V.B.b.k.v.C.A.Z.A.C.b.k.j.j.k.l.l.l.l.k.j.k.l.x.f.3.) j N e.D.C.n.z.b.C.A.C.b.z.m.M.z.h.k.v.V.N.x.l.l.k.j.l.f.3.( s , ",
"_.(.^.E.P.P.Y.Y.U.P.H.Z.N.N.N.N.V.A.G.J.D.V.N.N.V.b.w.} j C x.'.^.R.L.P.Y.W.Q.L.F.P.I.S.N.N.S.I.K.V.V.S.Z.B.V.b.e.} j 1 ",
"U.J.C.N.M.c.h.g.f.y.0.9.8.8.8.8.w.p.l.n.h.0.7.8.9.4.@.U r v p.U.A.N.M.x.h.c.M.z.d.f.s.e.8.7.e.s.i.0.r.a.t.9.9.4.@.R j 0 ",
"E.G.h.s.j.d.u.a.d.r.7.7.8.8.6.1.2.8.a.c.a.2.,.<.1.-.] D e M g.Y.B.b.b.f.q.u.h.u.0.9.9.8.6.2.1.2.1.1.5.9.6.<.:.$._ F a 6 ",
"_.J.t.8.u.p.p.j.x.g.u.y.y.u.e.6.2.3.t.z.s.5.2.3.4.:._ Z i F v.!.C.b.b.a.7.q.u.q.4.3.6.e.e.6.>.%.*.<.2.2.3.1.-.X.! V e , ",
"].P.p.6.9.u.h.f.p.p.i.r.0.0.0.0.7.3.7.y.t.q.0.q.w.5.| G s H n.Q.n.h.j.a.q.9.9.9.0.0.0.q.9.4.,.-.*.=.=.=.,.1.=...( G p 5 ",
"_.I.k.0.5.y.z.i.5.q.t.8.3.3.7.t.e.5.2.3.9.t.u.y.i.q.+.P d G n.E.l.u.u.u.y.9.5.q.u.u.r.7.2.2.2.1.-.@.O.+.=.,.*.X.' I h q ",
"W.K.n.u.5.q.f.e.2.4.7.4.3.8.e.i.r.5.1.1.5.9.0.9.q.4.} F a G n.E.k.e.9.8.9.0.w.y.i.r.8.4.2.2.<.-.$.O.X.o.#.&.$...( F i 3 ",
"P.F.n.p.6.9.u.w.5.4.4.2.5.e.i.u.w.4.2.2.2.2.2.2.4.:.) V i G b.T.h.0.5.3.3.9.t.y.e.5.1.1.2.1.;.#.O.@.@.@.+.O.+...Q B w , ",
"I.Z.s.9.5.0.i.u.r.r.e.7.6.t.i.w.7.4.3.4.3.3.3.3.5.>.( V p F l.H.i.9.e.9.4.6.9.4.>.=.=.<.1.-.$.+.$.;.>.:.&.+.@...Q V i 7 ",
"D.x.5.-.:.1.7.9.0.9.6.>.:.6.7.>.-.:.;.-.-.:.;.=.;.$.^ V u V t.b.5.<.9.5.>.;.*.O.|  .O.&.&.O. .| +.-.:.=.@. .| [ E C s 0 ",
"a.8.+.{ | [ ` } X.} _ ^ ( |  .( ( { ] ^ _ { ` ^ ~ ! Y V w j =.0.+.| o.X.| ` ~ E E ( ` / / ` ) W ^ { ] ^ Q E E T I C t 1 ",
"[ ( I H F C N A H V b n B D D B B S A N A H Z b c v n k 7 y E ' U J J H F B b n N S F C V D S B V D C b v b m M M k 9 , ",
"y i s u 0 w u s a w 7 r i r e u t 0 q u a s e 6 4 5 5 6 6 w g k f d s y 0 6 6 e u e w i i w q y t 0 7 5 5 6 e u q 6 7 8 ",
"A F K J F H P I L D V V x 6 7 N K D H Y Y L H D D D D F L I L P Y Y P F V B C H J m d t a M J Y L C C S Z C G K S Z K U ",
"V.M.x.v.B.m.z.l.l.l.d.5.) u f ,.m.B.Z.Z.M.x.b.V.C.V.C.N.v.l.l.v.C.B.x.k.j.h.j.z.g.3._ l V q.S.A.M.l.c.N.b.j.k.l.k.j.l.z.",
"~.R.G.F.J.Z.v.b.N.C.b.w.[ d M j.).^.W.Y.P.K.K.K.J.K.U.U.H.S.S.F.H.D.V.C.S.Z.B.m.k.0.} j C c.].^.U.G.P.Q.R.K.G.S.C.B.N.N.",
"B.n.h.u.q.2.;.1.7.0.4.@.R f D v.~.D.v.j.x.n.f.q.9.w.p.g.f.d.d.p.w.9.8.r.s.y.8.<.&...Y r c p.U.A.v.g.l.N.B.m.z.a.e.8.8.8.",
"p.y.w.6.1.>.>.,.,.:.$.{ I g F l.Y.b.g.f.z.v.y.1.6.e.w.0.0.w.y.t.8.3.1.8.t.0.<.;.@._ S 8 x d.T.B.k.p.u.a.l.v.s.9.3.1.5.8.",
"5.4.3.2.2.8.r.0.2.=.O.] I f S f.G.j.f.c.n.v.u.6.p.k.e.2.2.6.r.i.u.q.4.9.y.0.2.2.-.) B 7 n z.!.C.k.p.0.6.p.z.u.3.2.5.w.u.",
"0.7.2.1.3.0.p.u.0.2.%._ G s F l.L.h.f.b.b.k.d.a.h.f.5.=.>.3.8.e.i.u.w.q.0.7.2.,.%.` F t B j.Y.b.a.q.4.2.9.y.8.2.7.q.q.q.",
"u.e.5.2.1.7.t.u.t.9.-.( C u F v.T.k.d.x.j.p.g.z.g.r.>.$.>.3.2.6.r.u.t.9.2.2.1.=.o.' P d Z d.G.g.q.5.3.3.4.4.3.5.w.r.7.2.",
"0.q.w.5.-.-.,.5.8.2.#.~ N w N h.P.j.y.y.w.0.e.t.w.6.>.:.7.7.:.:.6.7.1.;.*.:.1.=.../ D r B k.K.u.7.q.w.w.q.q.q.q.0.8.4.2.",
"<.5.r.6.$.O.#.-.,.-.o.! N 7 x i.F.f.0.4.1.1.2.4.4.4.4.6.e.9.*.$.>.:.$.@.#.-.,.=...Q N 8 m z.P.t.6.r.y.y.y.y.u.r.7.2.1.<.",
"%.:.7.2.#.$.;.-.*.:.*./ N 6 x p.S.u.5.3.:.*.2.w.r.r.r.r.w.4.%.+.%.=.;.:.:.-.*.%...Q B r C j.K.d.0.0.9.0.0.9.0.9.6.1.-.&.",
"..+.&.%.o.@.*.+. .$.$./ N 7 l w.n.6.;.:.$.O.:.9.q.q.q.8.,.&.O. .| +.-.:.=.+.| | [ E V u V t.N.u.5.>.-.-.;.:.-.-.;.-.+...",
"' _ ^ / ` _ ~ W E Q ! Y B 8 f *.q.@.{ | { ] | O.O.O.O..._ ^ ` ( W ^ { ] ^ W R E R I V w j =.w.&...| ` ^ ` { _ / ' } ] ' ",
"F Z n B H D N n b n M m k 7 t Y ) U G F H K H F D F J G B N G G V V D Z N M M n b n k 7 y R ' U H F V n Z H V n S L P P ",
"9 8 6 q a s u q 7 w y 0 6 7 0 r i s u 0 r a y 9 8 0 i a w q i s p t 0 e u p u q 6 5 6 6 w g k f u 0 6 6 r a w 7 y f h h ",
"S Z V D U R T H Z K Y F Z K L F G U I F H L F V V V V x 0 e A T I G C S L Y Y G V B A I E T T T L Z B V F K F V B c y 7 ",
"V.m.l.c.C.S.Z.b.l.m.C.v.j.k.c.N.C.Z.Z.V.m.z.k.j.k.d.4.' k N e.Z.v.k.j.j.z.M.C.b.j.h.z.B.S.A.A.A.M.l.h.j.k.l.l.d.5._ d > ",
"_.~.I.L.U.E.W.P.D.F.H.F.A.B.C.G.K.J.J.J.C.v.n.N.M.l.0.| x H N.].Y.G.D.F.K.I.U.F.V.Z.D.H.J.J.J.J.D.V.C.S.Z.N.M.l.0.{ j 1 ",
"U.J.V.c.j.x.M.c.d.t.w.i.a.w.8.9.0.0.0.0.3.;.1.7.1.&. .R g G n.^.A.x.g.l.m.c.f.r.0.u.a.r.0.0.0.0.9.8.r.s.y.8.<.&. .R k 0 ",
"E.J.c.g.g.l.v.x.g.i.r.y.y.q.4.-.*.>.5.w.q.6.7.6.,.@.) D t Z v.Q.m.g.h.z.v.d.0.3.2.q.r.5.1.5.7.7.4.1.8.y.0.<.%.| / F a 7 ",
"_.I.l.d.x.b.b.b.v.v.x.d.u.u.0.-.&.<.e.k.c.z.f.y.8.-.) B 8 m x.E.l.d.x.n.b.p.4.1.4.e.t.6.5.e.i.u.q.4.8.t.0.1.*...! V w > ",
"'.T.b.d.p.d.j.d.a.z.b.p.9.0.q.q.0.0.e.i.a.a.y.0.2.%.` S 8 b x.Y.a.e.g.v.b.i.3.5.q.u.y.6.6.t.a.p.e.3.1.1.2.1.*...( D e ; ",
"`.E.B.a.7.9.y.0.6.a.l.t.3.2.9.g.k.a.w.5.2.2.3.2.-.O.] K w n x.I.t.7.u.j.c.i.5.0.y.u.r.6.5.e.i.u.w.5.:.%.;.<.-.o.[ L t ; ",
"'.R.b.t.4.3.8.5.3.0.t.e.9.4.5.r.p.p.e.3.;.&.;.1.<.&.` D y V h.J.a.w.u.d.g.p.w.0.9.9.8.3.3.7.9.9.0.w.9.4.3.2.<.*. .I t ; ",
"_.P.h.0.4.2.2.1.<.1.4.e.t.6.<.2.6.w.q.3.;.%.-.<.2.-.( C i S d.D.f.t.y.u.i.i.t.8.3.2.3.4.4.3.2.2.6.e.y.t.8.1.1.;. .K y > ",
"Q.D.u.5.4.3.3.>.=.>.5.y.y.1.=.<.2.,.<.3.6.7.<.*.=.#.~ V p D f.S.u.8.9.r.i.t.0.6.3.2.5.q.w.6.3.3.1.,.4.8.2.=.=.#.) D a 8 ",
"D.x.5.-.:.;.=.+. .@.;.4.4.$.O.&.%.o.@.;.4.8.;. .| [ E V u V t.b.6.=.=.1.9.3.-.=.-.;.,.5.5.:.-.:.&.o.#.-.#.| | [ E C s 0 ",
"p.8.+.} } ' ^ W E Q ^ ( _ ' _ / / _ ] } X.o.' E R T I V w j =.q.@._ ^ ' X.[ ~ ! / ] } ' ( ^ ) { { ] [ } ) E R T I V t 1 ",
" .) L G J A b v b v v v M G H M M G L K H D B b n M m k 7 t U _ U S B V S Z M b n Z D C M b N G J G F D C N M M m k 9 , ",
"z f w e a t 6 5 5 5 5 5 9 a a 9 9 p f d y 9 6 6 e y 0 6 6 9 r i s s i e 0 e u q 6 8 w i u 8 9 p i 0 8 9 e u p y 0 6 7 8 ",
"Y K Z A K J D Z V V B c f t p M G K P L H D S F P Y J G Y Y G G U Y P J D J L F B x s w t m J U P F S D L T E Y F Z J U ",
"A.N.l.j.l.n.B.b.j.k.s.2._ l V w.V.c.l.l.b.B.V.V.Z.A.C.C.Z.A.C.C.Z.N.x.b.B.n.z.l.s.3./ i l 8.D.A.Z.V.V.V.Z.A.S.C.c.j.l.z.",
"!.R.H.Z.V.A.J.H.S.A.b.8._ f A M.'.K.A.S.J.Y.I.K.J.K.U.Y.L.J.J.L.U.H.V.A.H.S.B.V.b.e.{ d B m.|./.E.T.T.Y.L.J.P.I.D.B.N.N.",
"B.n.h.y.9.8.0.u.s.y.3.{ A 9 m c.W.c.a.d.f.f.u.q.9.w.p.d.r.0.9.r.d.p.0.9.0.9.8.9.4.@.T d D b./.D.v.h.g.g.u.w.i.d.r.8.8.8.",
"k.d.e.3.-.-.<.0.t.5.$.) A e V v.Y.a.q.y.r.9.8.6.2.1.6.9.8.5.<.6.a.p.9.7.6.<.=.=.$.` D t Z v.^.C.f.w.t.d.p.t.y.t.6.<.<.<.",
"p.t.6.:.#.&.1.q.t.1.o.' P s F b.I.t.7.t.w.5.0.t.9.2.2.6.e.e.5.q.k.l.p.u.t.2.#.@.X.~ B 8 m x.^.Z.s.8.t.x.b.z.f.y.7.2.2.3.",
"0.8.4.-.O.+.*.3.8.:...( F t B h.J.p.8.0.9.0.t.u.9.3.6.9.0.q.q.y.g.h.a.t.0.2.*.#. .( F t B h.R.C.h.e.y.h.f.i.r.9.4.3.8.q.",
"1.2.1.;.$.+.@.-.<.-.X.! B 8 v p.G.g.q.4.8.y.i.y.8.4.e.y.7.5.w.y.u.i.u.q.5.3.<.=.o.' P d Z s.L.N.j.i.u.i.w.5.3.3.2.5.e.u.",
"&.&.&.:.3.1.;.*.&.-.%.^ B e V k.I.k.q.4.9.u.t.9.4.6.a.h.0.1.<.2.6.9.9.q.q.8.3.<.&.` D r m p.H.c.i.q.w.u.t.q.5.3.8.w.0.9.",
"@.@.@.>.w.0.1.*.$.;.-.( V u D v.T.h.9.4.8.t.9.1.,.4.s.h.0.;.#.%.1.3.1.7.e.8.1.1.-.( N 7 x i.F.f.q.6.9.t.y.e.7.4.0.w.6.2.",
":.:.:.2.8.3.=.-.:.:.#.~ B q N h.J.i.5.4.6.8.1.*.%.;.8.w.<.$.O.=.9.7.-.-.>.;.*.=.#.~ M 6 x p.S.u.9.e.w.9.4.<.2.3.1.<.2.3.",
":.;.=.-.;.$.o.@.&.+.[ E N 7 l q.b.5.-.;.;.*.+.| {  .#.&.O.....%.3.>.X.{ } } } | ] E N 7 l q.v.5.<.8.5.:.+. .@.&.o...&.:.",
"} ' ^ / ] ] _ / ! E Y P N 8 d %.8.O.[ { _ ! E T Y T E ! ( _ ` _ ) ~ R Y Y T T T Y P N 8 d %.8.O.{ .. .[ ^ T E Q R E _ { ",
"^ R H L Q ^ ~ U F D F H N 9 p { =.` ! ~ Y G D F F F D J E ^ ^ E H D F F F F F F F H N 9 p { =.` ! ~ ~ ! U G D F D J E ^ "
};